<?xml version="1.0" encoding="UTF-8" standalone="no"?>
<!-- Created with Inkscape (http://www.inkscape.org/) -->

<svg
   xmlns:dc="http://purl.org/dc/elements/1.1/"
   xmlns:cc="http://creativecommons.org/ns#"
   xmlns:rdf="http://www.w3.org/1999/02/22-rdf-syntax-ns#"
   xmlns:svg="http://www.w3.org/2000/svg"
   xmlns="http://www.w3.org/2000/svg"
   xmlns:sodipodi="http://sodipodi.sourceforge.net/DTD/sodipodi-0.dtd"
   xmlns:inkscape="http://www.inkscape.org/namespaces/inkscape"
   id="svg2"
   version="1.1"
   inkscape:version="0.48.5 r10040"
   width="40"
   height="40"
   xml:space="preserve"
   sodipodi:docname="llama_action_clear.svg"
   inkscape:export-filename="/home/nick/Hax/GitHubProjects/Llama/QuantumLlama/mobile/src/main/res/drawable-xxxhdpi/llama_action_clear.png"
   inkscape:export-xdpi="639"
   inkscape:export-ydpi="639"><metadata
     id="metadata8"><rdf:RDF><cc:Work
         rdf:about=""><dc:format>image/svg+xml</dc:format><dc:type
           rdf:resource="http://purl.org/dc/dcmitype/StillImage" /><dc:title></dc:title></cc:Work></rdf:RDF></metadata><defs
     id="defs6"><clipPath
       clipPathUnits="userSpaceOnUse"
       id="clipPath16"><path
         d="M 0,32 32,32 32,0 0,0 0,32 z"
         id="path18" /></clipPath><clipPath
       clipPathUnits="userSpaceOnUse"
       id="clipPath46"><path
         d="M 0,32 32,32 32,0 0,0 0,32 z"
         id="path48" /></clipPath><clipPath
       clipPathUnits="userSpaceOnUse"
       id="clipPath56"><path
         d="M 0,32 32,32 32,0 0,0 0,32 z"
         id="path58" /></clipPath><clipPath
       clipPathUnits="userSpaceOnUse"
       id="clipPath88"><path
         d="M 0,32 32,32 32,0 0,0 0,32 z"
         id="path90" /></clipPath><clipPath
       clipPathUnits="userSpaceOnUse"
       id="clipPath274"><path
         d="M 0,32 32,32 32,0 0,0 0,32 z"
         id="path276" /></clipPath><clipPath
       clipPathUnits="userSpaceOnUse"
       id="clipPath422"><path
         d="M 0,32 32,32 32,0 0,0 0,32 z"
         id="path424" /></clipPath><clipPath
       clipPathUnits="userSpaceOnUse"
       id="clipPath532"><path
         d="M 0,32 32,32 32,0 0,0 0,32 z"
         id="path534" /></clipPath><clipPath
       clipPathUnits="userSpaceOnUse"
       id="clipPath582"><path
         d="M 0,32 32,32 32,0 0,0 0,32 z"
         id="path584" /></clipPath><clipPath
       clipPathUnits="userSpaceOnUse"
       id="clipPath660"><path
         d="M 0,32 32,32 32,0 0,0 0,32 z"
         id="path662" /></clipPath><clipPath
       clipPathUnits="userSpaceOnUse"
       id="clipPath758"><path
         d="M 0,32 32,32 32,0 0,0 0,32 z"
         id="path760" /></clipPath><clipPath
       clipPathUnits="userSpaceOnUse"
       id="clipPath838"><path
         d="M 0,32 32,32 32,0 0,0 0,32 z"
         id="path840" /></clipPath><clipPath
       clipPathUnits="userSpaceOnUse"
       id="clipPath896"><path
         d="M 0,32 32,32 32,0 0,0 0,32 z"
         id="path898" /></clipPath><clipPath
       clipPathUnits="userSpaceOnUse"
       id="clipPath980"><path
         d="m 5.38916,28.1929 21.80814,0 0,-24.32864 -21.80814,0 0,24.32864 z"
         id="path982" /></clipPath></defs><sodipodi:namedview
     pagecolor="#ffffff"
     bordercolor="#666666"
     borderopacity="1"
     objecttolerance="10"
     gridtolerance="10"
     guidetolerance="10"
     inkscape:pageopacity="0"
     inkscape:pageshadow="2"
     inkscape:window-width="1535"
     inkscape:window-height="876"
     id="namedview4"
     showgrid="true"
     inkscape:snap-global="false"
     inkscape:zoom="11.313709"
     inkscape:cx="3.9435104"
     inkscape:cy="24.949142"
     inkscape:window-x="65"
     inkscape:window-y="24"
     inkscape:window-maximized="1"
     inkscape:current-layer="g10"><inkscape:grid
       type="xygrid"
       id="grid4403" /></sodipodi:namedview><g
     id="g10"
     inkscape:groupmode="layer"
     inkscape:label="Action_Bar_Icons"
     transform="matrix(1.25,0,0,-1.25,0,40)"><g
       clip-path="url(#clipPath56)"
       id="g54"
       transform="translate(41.627119,3.2542373)"><g
         transform="translate(6.6162,17.0317)"
         id="g68" /></g><g
       clip-path="url(#clipPath896)"
       id="g894"
       transform="translate(0.13758559,-2.7127635)"
       style="fill:#775566;fill-opacity:1"><g
         transform="translate(22.837107,20.764564)"
         id="g900"
         style="fill:#775566;fill-opacity:1"><path
           inkscape:connector-curvature="0"
           id="path902"
           style="fill:#775566;fill-opacity:1;fill-rule:nonzero;stroke:none"
           d="m 0,0 c -0.016,0.094 -0.073,0.186 -0.159,0.273 -0.693,-0.704 -3.482,-0.82 -6.815,-0.82 -3.334,0 -6.12,0.116 -6.816,0.82 C -13.875,0.186 -13.929,0.094 -13.948,0 l -0.007,0 0.002,-0.051 c 0,-0.006 -0.002,-0.011 -0.002,-0.017 0,-0.014 0.004,-0.026 0.006,-0.039 l 0.543,-11.118 0.001,0 c 0.049,-0.872 1.047,-2.189 6.431,-2.189 5.385,0 6.384,1.317 6.431,2.189 l 0.004,0 0.543,11.118 c 0.001,0.013 0.005,0.025 0.005,0.039 0,0.006 -0.004,0.011 -0.004,0.017 L 0.009,0 0,0 z" /></g><g
         transform="translate(13.918107,26.692364)"
         id="g904"
         style="fill:#775566;fill-opacity:1"><path
           inkscape:connector-curvature="0"
           id="path906"
           style="fill:#775566;fill-opacity:1;fill-rule:nonzero;stroke:none"
           d="m 0,0 -0.219,-0.014 0,1.088 c 0,0.475 0.066,0.864 0.145,0.864 l 1.01,0 1.731,0 1.01,0 c 0.079,0 0.144,-0.389 0.144,-0.864 l 0,-1.07 C 3.22,0.035 2.593,0.055 1.945,0.055 1.273,0.055 0.621,0.035 0,0 m 5.263,-0.109 0,2.625 c 0,0.474 -0.389,0.866 -0.866,0.866 l -5.194,0 c -0.474,0 -0.864,-0.392 -0.864,-0.866 l 0,-2.655 C -4.229,-0.43 -5.988,-1.02 -5.988,-1.704 l 0,-1.297 c 0,-0.267 0.27,-0.52 0.754,-0.748 1.266,-0.596 4.005,-1.008 7.179,-1.008 3.175,0 5.913,0.412 7.182,1.008 0.48,0.228 0.753,0.481 0.753,0.748 l 0,1.297 c 0,0.708 -1.894,1.317 -4.617,1.595" /></g></g></g></svg>